<svg xmlns="http://www.w3.org/2000/svg" width="136" height="28" class="splash-nav-logo">
  <g fill="#6799ff" fill-rule="evenodd">
    <path d="M9 20h3V8H3V3h17V0H0v11h9v9z"></path>
    <path d="M17 8v17H9v3h11V11h8V0h-3v8h-8zm25 3.5V20h3v-8.5h3.5V9h-10v2.5H42zM66 9v11h3V9h-3zm-11 4V9h-3v11h3v-4.5h4V20h3V9h-3v4h-4zm45 7h3v-4h5v-2.4h-5v-2h5.5V9H100v11zm-20-4.5L76 9h-3v11h3v-6.5l4 6.5h3V9h-3v6.5zM130 9h-3v11h8.5v-2.5H130V9zM93.5 9L90 14V9h-3v11h3v-5l3.5 5H97l-4-5.5L97 9h-3.5zm24 11.5c3 0 5.5-2.5 5.5-5.5V9h-3v5.5c0 1.5-.5 3-2.5 3s-2.5-1.5-2.5-3V9h-3v6c0 3 2.5 5.5 5.5 5.5z"></path>
  </g>
</svg>
